# Blender v2.76 (sub 0) OBJ File: 'penny.blend'
# www.blender.org
o Cylinder
v 0.000000 -0.100000 -1.000000
v 0.000000 0.100000 -1.000000
v 0.195090 -0.100000 -0.980785
v 0.195090 0.100000 -0.980785
v 0.382683 -0.100000 -0.923880
v 0.382683 0.100000 -0.923880
v 0.555570 -0.100000 -0.831470
v 0.555570 0.100000 -0.831470
v 0.707107 -0.100000 -0.707107
v 0.707107 0.100000 -0.707107
v 0.831470 -0.100000 -0.555570
v 0.831470 0.100000 -0.555570
v 0.923880 -0.100000 -0.382683
v 0.923880 0.100000 -0.382683
v 0.980785 -0.100000 -0.195090
v 0.980785 0.100000 -0.195090
v 1.000000 -0.100000 -0.000000
v 1.000000 0.100000 -0.000000
v 0.980785 -0.100000 0.195090
v 0.980785 0.100000 0.195090
v 0.923880 -0.100000 0.382683
v 0.923880 0.100000 0.382683
v 0.831470 -0.100000 0.555570
v 0.831470 0.100000 0.555570
v 0.707107 -0.100000 0.707107
v 0.707107 0.100000 0.707107
v 0.555570 -0.100000 0.831470
v 0.555570 0.100000 0.831470
v 0.382683 -0.100000 0.923880
v 0.382683 0.100000 0.923880
v 0.195090 -0.100000 0.980785
v 0.195090 0.100000 0.980785
v -0.000000 -0.100000 1.000000
v -0.000000 0.100000 1.000000
v -0.195091 -0.100000 0.980785
v -0.195091 0.100000 0.980785
v -0.382684 -0.100000 0.923879
v -0.382684 0.100000 0.923879
v -0.555571 -0.100000 0.831469
v -0.555571 0.100000 0.831469
v -0.707107 -0.100000 0.707106
v -0.707107 0.100000 0.707106
v -0.831470 -0.100000 0.555570
v -0.831470 0.100000 0.555570
v -0.923880 -0.100000 0.382683
v -0.923880 0.100000 0.382683
v -0.980785 -0.100000 0.195089
v -0.980785 0.100000 0.195089
v -1.000000 -0.100000 -0.000001
v -1.000000 0.100000 -0.000001
v -0.980785 -0.100000 -0.195091
v -0.980785 0.100000 -0.195091
v -0.923879 -0.100000 -0.382684
v -0.923879 0.100000 -0.382684
v -0.831469 -0.100000 -0.555571
v -0.831469 0.100000 -0.555571
v -0.707106 -0.100000 -0.707108
v -0.707106 0.100000 -0.707108
v -0.555569 -0.100000 -0.831470
v -0.555569 0.100000 -0.831470
v -0.382682 -0.100000 -0.923880
v -0.382682 0.100000 -0.923880
v -0.195089 -0.100000 -0.980786
v -0.195089 0.100000 -0.980786
vt 0.432712 0.004267
vt 0.466409 0.004267
vt 0.466409 0.113230
vt 0.498150 0.004267
vt 0.498150 0.113230
vt 0.526717 0.004267
vt 0.526717 0.113230
vt 0.551011 0.004267
vt 0.551011 0.113230
vt 0.009008 0.004856
vt 0.033301 0.004856
vt 0.033301 0.113819
vt 0.061868 0.004856
vt 0.061868 0.113819
vt 0.093609 0.004856
vt 0.093609 0.113819
vt 0.127306 0.004856
vt 0.127306 0.113819
vt 0.161663 0.004856
vt 0.161663 0.113820
vt 0.195359 0.004856
vt 0.195359 0.113819
vt 0.227101 0.004856
vt 0.227101 0.113819
vt 0.255667 0.004856
vt 0.255667 0.113819
vt 0.279961 0.004856
vt 0.279961 0.113819
vt 0.773473 0.112641
vt 0.744907 0.112641
vt 0.744907 0.003678
vt 0.713165 0.112641
vt 0.713165 0.003678
vt 0.679469 0.112641
vt 0.679469 0.003678
vt 0.645112 0.112641
vt 0.645112 0.003678
vt 0.611416 0.112641
vt 0.611416 0.003678
vt 0.579674 0.112641
vt 0.579674 0.003678
vt 0.551108 0.112641
vt 0.551108 0.003678
vt 0.773473 0.003678
vt 0.802040 0.003678
vt 0.802040 0.112641
vt 0.833781 0.003678
vt 0.833781 0.112641
vt 0.867478 0.003678
vt 0.867478 0.112641
vt 0.901835 0.003678
vt 0.901835 0.112641
vt 0.935531 0.003678
vt 0.935531 0.112641
vt 0.967273 0.003678
vt 0.967273 0.112641
vt 0.995839 0.003678
vt 0.995839 0.112641
vt 0.280058 0.004267
vt 0.304351 0.004267
vt 0.304351 0.113230
vt 0.332918 0.004267
vt 0.332918 0.113230
vt 0.364659 0.004267
vt 0.364659 0.113230
vt 0.062682 0.304238
vt 0.230386 0.151338
vt 0.501994 0.531550
vt 0.398356 0.004267
vt 0.432712 0.113230
vt 0.398356 0.113230
vt 0.677128 0.167545
vt 0.987004 0.450068
vt 0.511496 0.696109
vt 0.009008 0.113819
vt 0.280058 0.113230
vt 0.501994 0.614627
vt 0.492492 0.696109
vt 0.473854 0.772862
vt 0.446795 0.841939
vt 0.412355 0.900684
vt 0.371858 0.946839
vt 0.326860 0.978632
vt 0.279091 0.994839
vt 0.230386 0.994840
vt 0.182616 0.978632
vt 0.137619 0.946840
vt 0.097122 0.900684
vt 0.062682 0.841939
vt 0.007482 0.614627
vt 0.035623 0.772863
vt 0.016984 0.696109
vt 0.007482 0.531550
vt 0.016984 0.450068
vt 0.035623 0.373314
vt 0.097122 0.245493
vt 0.137619 0.199338
vt 0.182616 0.167545
vt 0.279091 0.151338
vt 0.326860 0.167545
vt 0.371858 0.199338
vt 0.412355 0.245493
vt 0.446795 0.304238
vt 0.473854 0.373314
vt 0.492492 0.450068
vt 0.821372 0.978632
vt 0.773603 0.994840
vt 0.724898 0.994840
vt 0.677128 0.978632
vt 0.632131 0.946840
vt 0.591634 0.900684
vt 0.557194 0.841939
vt 0.530135 0.772863
vt 0.511496 0.450069
vt 0.530135 0.373315
vt 0.557194 0.304238
vt 0.591634 0.245493
vt 0.632131 0.199338
vt 0.724898 0.151338
vt 0.773603 0.151338
vt 0.821372 0.167545
vt 0.866370 0.199338
vt 0.906867 0.245493
vt 0.941307 0.304238
vt 0.968366 0.373315
vt 0.996506 0.531550
vt 0.996506 0.614628
vt 0.987004 0.696109
vt 0.968366 0.772863
vt 0.941306 0.841939
vt 0.906866 0.900684
vt 0.866370 0.946840
vn 0.098000 0.000000 -0.995200
vn 0.290300 0.000000 -0.956900
vn 0.471400 0.000000 -0.881900
vn 0.634400 0.000000 -0.773000
vn 0.773000 0.000000 -0.634400
vn 0.881900 0.000000 -0.471400
vn 0.956900 0.000000 -0.290300
vn 0.995200 0.000000 -0.098000
vn 0.995200 0.000000 0.098000
vn 0.956900 0.000000 0.290300
vn 0.881900 0.000000 0.471400
vn 0.773000 0.000000 0.634400
vn 0.634400 0.000000 0.773000
vn 0.471400 0.000000 0.881900
vn 0.290300 0.000000 0.956900
vn 0.098000 0.000000 0.995200
vn -0.098000 0.000000 0.995200
vn -0.290300 0.000000 0.956900
vn -0.471400 0.000000 0.881900
vn -0.634400 0.000000 0.773000
vn -0.773000 0.000000 0.634400
vn -0.881900 0.000000 0.471400
vn -0.956900 0.000000 0.290300
vn -0.995200 0.000000 0.098000
vn -0.995200 0.000000 -0.098000
vn -0.956900 0.000000 -0.290300
vn -0.881900 0.000000 -0.471400
vn -0.773000 0.000000 -0.634400
vn -0.634400 0.000000 -0.773000
vn -0.471400 0.000000 -0.881900
vn 0.000000 1.000000 0.000000
vn -0.098000 0.000000 -0.995200
vn -0.290300 0.000000 -0.956900
vn 0.000000 -1.000000 0.000000
s off
f 2/1/1 4/2/1 3/3/1
f 4/2/2 6/4/2 5/5/2
f 6/4/3 8/6/3 7/7/3
f 8/6/4 10/8/4 9/9/4
f 10/10/5 12/11/5 11/12/5
f 12/11/6 14/13/6 13/14/6
f 14/13/7 16/15/7 15/16/7
f 16/15/8 18/17/8 17/18/8
f 18/17/9 20/19/9 19/20/9
f 20/19/10 22/21/10 21/22/10
f 22/21/11 24/23/11 23/24/11
f 24/23/12 26/25/12 25/26/12
f 26/25/13 28/27/13 27/28/13
f 28/29/14 30/30/14 29/31/14
f 30/30/15 32/32/15 31/33/15
f 32/32/16 34/34/16 33/35/16
f 34/34/17 36/36/17 35/37/17
f 36/36/18 38/38/18 37/39/18
f 38/38/19 40/40/19 39/41/19
f 40/40/20 42/42/20 41/43/20
f 42/44/21 44/45/21 43/46/21
f 44/45/22 46/47/22 45/48/22
f 46/47/23 48/49/23 47/50/23
f 48/49/24 50/51/24 49/52/24
f 50/51/25 52/53/25 51/54/25
f 52/53/26 54/55/26 53/56/26
f 54/55/27 56/57/27 55/58/27
f 56/59/28 58/60/28 57/61/28
f 58/60/29 60/62/29 59/63/29
f 60/62/30 62/64/30 61/65/30
f 30/66/31 22/67/31 6/68/31
f 64/69/32 2/1/32 1/70/32
f 62/64/33 64/69/33 63/71/33
f 31/72/34 47/73/34 15/74/34
f 1/70/1 2/1/1 3/3/1
f 3/3/2 4/2/2 5/5/2
f 5/5/3 6/4/3 7/7/3
f 7/7/4 8/6/4 9/9/4
f 9/75/5 10/10/5 11/12/5
f 11/12/6 12/11/6 13/14/6
f 13/14/7 14/13/7 15/16/7
f 15/16/8 16/15/8 17/18/8
f 17/18/9 18/17/9 19/20/9
f 19/20/10 20/19/10 21/22/10
f 21/22/11 22/21/11 23/24/11
f 23/24/12 24/23/12 25/26/12
f 25/26/13 26/25/13 27/28/13
f 27/44/14 28/29/14 29/31/14
f 29/31/15 30/30/15 31/33/15
f 31/33/16 32/32/16 33/35/16
f 33/35/17 34/34/17 35/37/17
f 35/37/18 36/36/18 37/39/18
f 37/39/19 38/38/19 39/41/19
f 39/41/20 40/40/20 41/43/20
f 41/29/21 42/44/21 43/46/21
f 43/46/22 44/45/22 45/48/22
f 45/48/23 46/47/23 47/50/23
f 47/50/24 48/49/24 49/52/24
f 49/52/25 50/51/25 51/54/25
f 51/54/26 52/53/26 53/56/26
f 53/56/27 54/55/27 55/58/27
f 55/76/28 56/59/28 57/61/28
f 57/61/29 58/60/29 59/63/29
f 59/63/30 60/62/30 61/65/30
f 6/68/31 4/77/31 2/78/31
f 2/78/31 64/79/31 6/68/31
f 62/80/31 60/81/31 58/82/31
f 58/82/31 56/83/31 54/84/31
f 54/84/31 52/85/31 50/86/31
f 50/86/31 48/87/31 54/84/31
f 46/88/31 44/89/31 38/90/31
f 42/91/31 40/92/31 38/90/31
f 38/90/31 36/93/31 34/94/31
f 34/94/31 32/95/31 38/90/31
f 30/66/31 28/96/31 22/67/31
f 26/97/31 24/98/31 22/67/31
f 22/67/31 20/99/31 18/100/31
f 18/100/31 16/101/31 14/102/31
f 14/102/31 12/103/31 10/104/31
f 10/104/31 8/105/31 6/68/31
f 6/68/31 64/79/31 62/80/31
f 62/80/31 58/82/31 54/84/31
f 54/84/31 48/87/31 46/88/31
f 44/89/31 42/91/31 38/90/31
f 38/90/31 32/95/31 30/66/31
f 28/96/31 26/97/31 22/67/31
f 22/67/31 18/100/31 14/102/31
f 14/102/31 10/104/31 22/67/31
f 6/68/31 62/80/31 54/84/31
f 54/84/31 46/88/31 38/90/31
f 38/90/31 30/66/31 6/68/31
f 22/67/31 10/104/31 6/68/31
f 6/68/31 54/84/31 38/90/31
f 63/71/32 64/69/32 1/70/32
f 61/65/33 62/64/33 63/71/33
f 63/106/34 1/107/34 3/108/34
f 3/108/34 5/109/34 7/110/34
f 7/110/34 9/111/34 11/112/34
f 11/112/34 13/113/34 7/110/34
f 15/74/34 17/77/34 19/68/34
f 19/68/34 21/114/34 15/74/34
f 23/115/34 25/116/34 31/72/34
f 27/117/34 29/118/34 31/72/34
f 31/72/34 33/119/34 35/120/34
f 35/120/34 37/121/34 39/122/34
f 39/122/34 41/123/34 43/124/34
f 43/124/34 45/125/34 47/73/34
f 47/73/34 49/126/34 51/127/34
f 51/127/34 53/128/34 55/129/34
f 55/129/34 57/130/34 63/106/34
f 59/131/34 61/132/34 63/106/34
f 63/106/34 3/108/34 15/74/34
f 7/110/34 13/113/34 15/74/34
f 15/74/34 21/114/34 23/115/34
f 25/116/34 27/117/34 31/72/34
f 31/72/34 35/120/34 47/73/34
f 39/122/34 43/124/34 47/73/34
f 47/73/34 51/127/34 63/106/34
f 57/130/34 59/131/34 63/106/34
f 3/108/34 7/110/34 15/74/34
f 15/74/34 23/115/34 31/72/34
f 35/120/34 39/122/34 47/73/34
f 51/127/34 55/129/34 63/106/34
f 63/106/34 15/74/34 47/73/34
