# Blender v2.77 (sub 0) OBJ File: 'smallrock.blend'
# www.blender.org
o Cube_Cube.002
v -0.080289 -0.732279 -0.042480
v -0.444220 -0.774146 -0.018088
v -0.097167 -0.744202 -0.381726
v 0.264444 -0.790551 -0.061132
v -0.055021 -0.721814 0.284743
v -0.385564 -0.702302 0.310246
v -0.418972 -0.676279 -0.340176
v 0.231207 -0.738193 -0.379644
v 0.229903 -0.649525 0.252097
v -0.048344 0.082343 -0.860606
v -0.445708 0.122344 -0.914800
v -0.010102 0.436756 -0.826948
v 0.306213 0.046933 -0.823098
v -0.072348 -0.260356 -0.788903
v -0.431181 -0.272563 -0.866399
v -0.341473 0.441557 -0.752439
v 0.332739 0.371600 -0.760359
v 0.249440 -0.277779 -0.786756
v 0.100638 0.942519 0.043960
v -0.265162 0.883365 0.057723
v 0.104934 0.809420 0.381496
v 0.404249 0.750120 0.029480
v 0.063970 0.865049 -0.312489
v -0.270120 0.853541 -0.288613
v -0.207227 0.710328 0.351889
v 0.446097 0.814168 0.370220
v 0.366379 0.735933 -0.305375
v 0.044338 -0.005157 0.831685
v -0.301350 0.035239 0.838255
v 0.019480 -0.399555 0.878640
v 0.396824 -0.039888 0.798746
v 0.068829 0.318779 0.775877
v -0.247519 0.353576 0.796328
v -0.311523 -0.293519 0.759539
v 0.344612 -0.370300 0.767180
v 0.401223 0.287950 0.750503
v 1.488059 -0.055804 -0.143864
v 1.153245 -0.478809 -0.067506
v 1.094568 0.031092 -0.562026
v 1.217768 0.386914 -0.085875
v 1.262581 -0.098239 0.359519
v 1.008933 -0.436167 0.293291
v 0.870445 -0.381590 -0.414165
v 1.028641 0.377321 -0.524311
v 1.208140 0.333351 0.409847
v -1.545124 0.202695 0.008273
v -1.085947 0.627500 0.031042
v -1.312215 0.167725 -0.406090
v -1.541317 -0.412517 0.029932
v -1.016328 0.078549 0.542957
v -0.753522 0.439329 0.416978
v -0.962831 0.608758 -0.381556
v -1.166015 -0.345226 -0.458557
v -1.005165 -0.326072 0.464080
v 0.275371 -0.618762 0.551938
v -0.024952 -0.619382 0.603712
v -0.320227 -0.533910 0.568171
v -0.740632 -0.590134 0.360290
v -0.799166 -0.653094 0.014795
v -0.741152 -0.565279 -0.325889
v -0.392738 -0.500666 -0.607546
v -0.095428 -0.550296 -0.645872
v 0.208269 -0.558181 -0.642652
v 0.529141 -0.605810 -0.367150
v 0.594693 -0.671945 -0.070148
v 0.557525 -0.629476 0.237060
v -0.733401 -0.199596 -0.639277
v -0.768283 0.160898 -0.685905
v -0.656674 0.465814 -0.594056
v -0.274565 0.701429 -0.552656
v 0.029732 0.707300 -0.611493
v 0.337743 0.637298 -0.597875
v 0.728136 0.358426 -0.725890
v 0.708469 0.042853 -0.759156
v 0.543871 -0.297386 -0.659965
v -0.565204 0.726965 -0.250538
v -0.597849 0.757729 0.067235
v -0.520246 0.677011 0.365832
v -0.210104 0.651733 0.657491
v 0.090147 0.605811 0.622824
v 0.393373 0.563350 0.593283
v 0.762259 0.592815 0.323824
v 0.753996 0.633541 -0.003390
v 0.708207 0.613201 -0.361832
v -0.550341 0.367279 0.665015
v -0.652572 0.064094 0.718917
v -0.642022 -0.259020 0.651105
v 0.615711 -0.353625 0.551001
v 0.766126 -0.051665 0.633787
v 0.755903 0.269328 0.613839
v 0.485283 -0.545175 0.453960
v -0.562292 -0.468322 0.535122
v 0.484002 -0.589672 -0.662975
v -0.597192 -0.405929 -0.508217
v 0.636463 0.483622 0.521696
v -0.427046 0.570004 0.565126
v 0.609863 0.550892 -0.582119
v -0.492070 0.635953 -0.465010
vt 0.392671 0.342091
vt 0.406084 0.406587
vt 0.362110 0.388670
vt 0.340628 0.445036
vt 0.428517 0.371114
vt 0.442440 0.420058
vt 0.428642 0.447548
vt 0.393631 0.454536
vt 0.314846 0.354189
vt 0.351886 0.303981
vt 0.257303 0.310097
vt 0.306222 0.256967
vt 0.279737 0.415926
vt 0.231465 0.367972
vt 0.397290 0.267955
vt 0.429920 0.306068
vt 0.448809 0.235074
vt 0.473719 0.282602
vt 0.360278 0.217354
vt 0.408362 0.199522
vt 0.452714 0.344110
vt 0.459409 0.391356
vt 0.485417 0.321099
vt 0.491814 0.347158
vt 0.476956 0.366969
vt 0.085831 0.075155
vt 0.172965 0.272058
vt 0.007529 0.179521
vt 0.150456 0.388131
vt 0.000000 0.414970
vt 0.246501 0.186890
vt 1.000000 0.502712
vt 0.836711 0.594074
vt 0.860596 0.492268
vt 0.754146 0.549437
vt 0.770858 0.482010
vt 0.955780 0.685134
vt 0.754164 0.675404
vt 0.726918 0.602923
vt 0.852325 0.385941
vt 0.968840 0.345379
vt 0.849893 0.180510
vt 0.771183 0.412628
vt 0.757022 0.350294
vt 0.785497 0.290121
vt 0.336311 0.134794
vt 0.319072 0.000000
vt 0.437447 0.133763
vt 0.706475 0.474839
vt 0.638882 0.513275
vt 0.653370 0.463947
vt 0.667964 0.593096
vt 0.608729 0.564090
vt 0.692565 0.531219
vt 0.597075 0.489557
vt 0.611593 0.452213
vt 0.577878 0.445514
vt 0.574948 0.525641
vt 0.556015 0.499816
vt 0.565912 0.473850
vt 0.656399 0.417089
vt 0.613184 0.378288
vt 0.648851 0.367932
vt 0.585045 0.415443
vt 0.616369 0.416734
vt 0.589506 0.389807
vt 0.710290 0.417513
vt 0.517323 0.422881
vt 0.535066 0.465269
vt 0.503190 0.455465
vt 0.524839 0.500443
vt 0.485286 0.494785
vt 0.546654 0.435032
vt 0.471783 0.437633
vt 0.487192 0.405687
vt 0.448618 0.472616
vt 0.503565 0.382066
vt 0.530752 0.392092
vt 0.516946 0.352515
vt 0.547456 0.359818
vt 0.557358 0.404916
vt 0.571771 0.373272
vt 0.569147 0.318253
vt 0.551721 0.276354
vt 0.586841 0.286070
vt 0.536670 0.312193
vt 0.626774 0.106335
vt 0.525712 0.199681
vt 0.517722 0.000000
vt 0.625816 0.324908
vt 0.704670 0.352473
vt 0.695108 0.268762
vt 0.589424 0.339521
vt 0.458321 0.546484
vt 0.545624 0.644520
vt 0.359574 0.750452
vt 0.529525 0.546511
vt 0.543107 0.872860
vt 0.639431 0.691515
vt 0.812124 0.795225
vt 0.134249 0.731617
vt 0.323857 0.555723
vt 0.225779 0.506200
vt 0.403160 0.509287
vn -0.013700 -0.999000 0.041700
vn -0.118200 -0.915600 0.384200
vn -0.120600 -0.992100 -0.034700
vn -0.361600 -0.932200 0.014600
vn 0.075500 -0.977400 0.197500
vn -0.244300 -0.726500 0.642200
vn -0.268300 -0.640200 0.719800
vn -0.386500 -0.796300 0.465400
vn -0.256100 -0.875700 -0.409300
vn -0.106900 -0.951400 -0.288800
vn -0.326000 -0.712000 -0.621800
vn -0.106000 -0.637000 -0.763500
vn -0.289000 -0.806700 -0.515500
vn -0.403000 -0.661500 -0.632400
vn 0.124100 -0.948000 -0.292900
vn 0.082200 -0.993700 0.075900
vn 0.503400 -0.809800 -0.301200
vn 0.366100 -0.927200 -0.079200
vn -0.063600 -0.653000 -0.754600
vn 0.514000 -0.590400 -0.622200
vn 0.123900 -0.958000 0.258500
vn -0.109200 -0.869200 0.482200
vn 0.274000 -0.891900 0.359800
vn 0.454400 -0.776700 0.436100
vn 0.273400 -0.884200 0.378700
vn 0.091200 0.018300 -0.995600
vn -0.227300 -0.463900 -0.856200
vn -0.231300 0.158300 -0.959900
vn -0.428100 -0.400200 -0.810300
vn -0.487200 0.150200 -0.860300
vn 0.052900 -0.375900 -0.925100
vn -0.218800 0.528400 -0.820300
vn 0.009200 0.363100 -0.931700
vn -0.270500 0.750900 -0.602400
vn 0.031200 0.766500 -0.641400
vn -0.325300 0.564700 -0.758400
vn -0.306600 0.767800 -0.562500
vn 0.178700 0.335700 -0.924900
vn 0.162500 -0.017500 -0.986500
vn 0.310500 -0.162000 -0.936600
vn 0.267800 0.738900 -0.618200
vn 0.274700 0.765000 -0.582500
vn 0.300900 0.389500 -0.870400
vn 0.140900 -0.264000 -0.954200
vn 0.463400 -0.342600 -0.817300
vn 0.124800 0.938300 -0.322400
vn -0.211900 0.960100 0.182300
vn 0.164000 0.980700 0.106400
vn -0.293200 0.918900 -0.263900
vn -0.352800 0.920100 0.170200
vn -0.231900 0.929600 -0.286300
vn -0.152100 0.888600 0.432600
vn -0.056600 0.884600 0.462900
vn 0.106100 0.670800 0.734000
vn -0.379300 0.796600 0.470700
vn -0.400500 0.700000 0.591200
vn -0.143000 0.784800 0.603000
vn 0.395400 0.917500 -0.042200
vn 0.469300 0.809000 0.353800
vn 0.397100 0.917700 0.005100
vn 0.244800 0.566200 0.787000
vn 0.290600 0.911800 0.290200
vn 0.442900 0.547300 0.710000
vn 0.365600 0.902200 -0.228700
vn 0.046600 0.060500 0.997100
vn -0.155100 0.317400 0.935500
vn -0.170800 -0.019700 0.985100
vn -0.479300 0.431600 0.764200
vn -0.413800 0.094600 0.905400
vn 0.110500 0.311100 0.943900
vn -0.293500 -0.366400 0.882900
vn -0.050800 -0.366500 0.929000
vn -0.353200 -0.363800 0.861900
vn 0.423300 -0.377300 0.823700
vn 0.284000 -0.045800 0.957700
vn 0.455600 -0.531700 0.713900
vn 0.421200 -0.193000 0.886200
vn 0.237400 0.319000 0.917500
vn 0.379500 0.331100 0.863900
vn 0.774100 -0.216900 0.594700
vn 0.598300 -0.791200 -0.126400
vn 0.981700 -0.064200 -0.178900
vn 0.471000 -0.713300 0.519000
vn 0.649900 -0.120500 -0.750400
vn 0.441800 -0.646300 -0.622100
vn 0.750100 0.654500 -0.094700
vn 0.375600 0.891700 -0.252600
vn 0.655400 0.523200 -0.544600
vn 0.727100 0.447100 0.521000
vn -0.554700 0.179400 0.812400
vn -0.529600 0.821800 0.210100
vn -0.925200 0.357100 0.127900
vn -0.477500 0.609000 0.633300
vn -0.696300 0.249200 -0.673000
vn -0.446900 0.742700 -0.498700
vn -0.838500 -0.530100 0.126200
vn -0.474600 -0.512800 -0.715400
vn -0.507200 -0.456100 0.731200
s 1
f 1/1/1 6/2/2 2/3/3
f 6/2/2 59/4/4 2/3/3
f 5/5/5 57/6/6 6/2/2
f 6/2/2 92/7/7 58/8/8
f 1/1/1 7/9/9 3/10/10
f 3/10/10 61/11/11 62/12/12
f 2/3/3 60/13/13 7/9/9
f 7/9/9 94/14/14 61/11/11
f 1/1/1 8/15/15 4/16/16
f 4/16/16 64/17/17 65/18/18
f 3/10/10 63/19/19 8/15/15
f 8/15/15 93/20/20 64/17/17
f 1/1/1 9/21/21 5/5/5
f 9/21/21 56/22/22 5/5/5
f 4/16/16 66/23/23 9/21/21
f 9/21/21 91/24/24 55/25/25
f 10/26/26 15/27/27 11/28/28
f 11/28/28 67/29/29 68/30/30
f 14/31/31 61/11/11 15/27/27
f 15/27/27 94/14/14 67/29/29
f 10/32/26 16/33/32 12/34/33
f 12/34/33 70/35/34 71/36/35
f 11/37/28 69/38/36 16/33/32
f 16/33/32 98/39/37 70/35/34
f 10/32/26 17/40/38 13/41/39
f 17/40/38 74/42/40 13/41/39
f 12/34/33 72/43/41 17/40/38
f 17/40/38 97/44/42 73/45/43
f 10/26/26 18/46/44 14/31/31
f 14/31/31 63/19/19 62/12/12
f 13/47/39 75/48/45 18/46/44
f 18/46/44 93/20/20 63/19/19
f 23/49/46 20/50/47 19/51/48
f 20/50/47 76/52/49 77/53/50
f 23/49/46 70/35/34 24/54/51
f 24/54/51 98/39/37 76/52/49
f 19/51/48 25/55/52 21/56/53
f 25/55/52 80/57/54 21/56/53
f 20/50/47 78/58/55 25/55/52
f 25/55/52 96/59/56 79/60/57
f 21/56/53 22/61/58 19/51/48
f 22/61/58 82/62/59 83/63/60
f 21/56/53 81/64/61 26/65/62
f 26/65/62 95/66/63 82/62/59
f 19/51/48 27/67/64 23/49/46
f 23/49/46 72/43/41 71/36/35
f 83/63/60 27/67/64 22/61/58
f 27/67/64 97/44/42 72/43/41
f 28/68/65 33/69/66 29/70/67
f 29/70/67 85/71/68 86/72/69
f 32/73/70 79/60/57 33/69/66
f 33/69/66 96/59/56 85/71/68
f 28/68/65 34/74/71 30/75/72
f 34/74/71 56/22/22 30/75/72
f 29/70/67 87/76/73 34/74/71
f 34/74/71 92/7/7 57/6/6
f 28/68/65 35/77/74 31/78/75
f 31/78/75 88/79/76 89/80/77
f 30/75/72 55/25/25 35/77/74
f 35/77/74 91/24/24 88/79/76
f 28/68/65 36/81/78 32/73/70
f 32/73/70 81/64/61 80/57/54
f 31/78/75 90/82/79 36/81/78
f 36/81/78 95/66/63 81/64/61
f 41/83/80 38/84/81 37/85/82
f 42/86/83 65/18/18 38/84/81
f 89/80/77 42/86/83 41/83/80
f 88/79/76 66/23/23 42/86/83
f 38/84/81 39/87/84 37/85/82
f 43/88/85 74/89/40 39/87/84
f 65/18/18 43/88/85 38/84/81
f 64/17/17 75/48/45 43/88/85
f 39/87/84 40/90/86 37/85/82
f 40/90/86 84/91/87 83/63/60
f 39/87/84 73/45/43 44/92/88
f 44/92/88 97/44/42 84/91/87
f 40/90/86 41/83/80 37/85/82
f 45/93/89 89/80/77 41/83/80
f 40/90/86 82/62/59 45/93/89
f 82/62/59 90/82/79 45/93/89
f 50/94/90 47/95/91 46/96/92
f 51/97/93 77/53/50 47/95/91
f 86/72/69 51/97/93 50/94/90
f 51/97/93 96/59/56 78/58/55
f 47/95/91 48/98/94 46/96/92
f 52/99/95 68/100/30 48/98/94
f 47/95/91 76/52/49 52/99/95
f 52/99/95 98/39/37 69/38/36
f 48/101/94 49/102/96 46/96/92
f 53/103/97 59/4/4 49/102/96
f 68/30/30 53/103/97 48/101/94
f 67/29/29 60/13/13 53/103/97
f 46/96/92 54/104/98 50/94/90
f 50/94/90 87/76/73 86/72/69
f 59/4/4 54/104/98 49/102/96
f 54/104/98 92/7/7 87/76/73
f 1/1/1 5/5/5 6/2/2
f 6/2/2 58/8/8 59/4/4
f 5/5/5 56/22/22 57/6/6
f 6/2/2 57/6/6 92/7/7
f 1/1/1 2/3/3 7/9/9
f 3/10/10 7/9/9 61/11/11
f 2/3/3 59/4/4 60/13/13
f 7/9/9 60/13/13 94/14/14
f 1/1/1 3/10/10 8/15/15
f 4/16/16 8/15/15 64/17/17
f 3/10/10 62/12/12 63/19/19
f 8/15/15 63/19/19 93/20/20
f 1/1/1 4/16/16 9/21/21
f 9/21/21 55/25/25 56/22/22
f 4/16/16 65/18/18 66/23/23
f 9/21/21 66/23/23 91/24/24
f 10/26/26 14/31/31 15/27/27
f 11/28/28 15/27/27 67/29/29
f 14/31/31 62/12/12 61/11/11
f 15/27/27 61/11/11 94/14/14
f 10/32/26 11/37/28 16/33/32
f 12/34/33 16/33/32 70/35/34
f 11/37/28 68/100/30 69/38/36
f 16/33/32 69/38/36 98/39/37
f 10/32/26 12/34/33 17/40/38
f 17/40/38 73/45/43 74/42/40
f 12/34/33 71/36/35 72/43/41
f 17/40/38 72/43/41 97/44/42
f 10/26/26 13/47/39 18/46/44
f 14/31/31 18/46/44 63/19/19
f 13/47/39 74/89/40 75/48/45
f 18/46/44 75/48/45 93/20/20
f 23/49/46 24/54/51 20/50/47
f 20/50/47 24/54/51 76/52/49
f 23/49/46 71/36/35 70/35/34
f 24/54/51 70/35/34 98/39/37
f 19/51/48 20/50/47 25/55/52
f 25/55/52 79/60/57 80/57/54
f 20/50/47 77/53/50 78/58/55
f 25/55/52 78/58/55 96/59/56
f 21/56/53 26/65/62 22/61/58
f 22/61/58 26/65/62 82/62/59
f 21/56/53 80/57/54 81/64/61
f 26/65/62 81/64/61 95/66/63
f 19/51/48 22/61/58 27/67/64
f 23/49/46 27/67/64 72/43/41
f 83/63/60 84/91/87 27/67/64
f 27/67/64 84/91/87 97/44/42
f 28/68/65 32/73/70 33/69/66
f 29/70/67 33/69/66 85/71/68
f 32/73/70 80/57/54 79/60/57
f 33/69/66 79/60/57 96/59/56
f 28/68/65 29/70/67 34/74/71
f 34/74/71 57/6/6 56/22/22
f 29/70/67 86/72/69 87/76/73
f 34/74/71 87/76/73 92/7/7
f 28/68/65 30/75/72 35/77/74
f 31/78/75 35/77/74 88/79/76
f 30/75/72 56/22/22 55/25/25
f 35/77/74 55/25/25 91/24/24
f 28/68/65 31/78/75 36/81/78
f 32/73/70 36/81/78 81/64/61
f 31/78/75 89/80/77 90/82/79
f 36/81/78 90/82/79 95/66/63
f 41/83/80 42/86/83 38/84/81
f 42/86/83 66/23/23 65/18/18
f 89/80/77 88/79/76 42/86/83
f 88/79/76 91/24/24 66/23/23
f 38/84/81 43/88/85 39/87/84
f 43/88/85 75/48/45 74/89/40
f 65/18/18 64/17/17 43/88/85
f 64/17/17 93/20/20 75/48/45
f 39/87/84 44/92/88 40/90/86
f 40/90/86 44/92/88 84/91/87
f 39/87/84 74/42/40 73/45/43
f 44/92/88 73/45/43 97/44/42
f 40/90/86 45/93/89 41/83/80
f 45/93/89 90/82/79 89/80/77
f 40/90/86 83/63/60 82/62/59
f 82/62/59 95/66/63 90/82/79
f 50/94/90 51/97/93 47/95/91
f 51/97/93 78/58/55 77/53/50
f 86/72/69 85/71/68 51/97/93
f 51/97/93 85/71/68 96/59/56
f 47/95/91 52/99/95 48/98/94
f 52/99/95 69/38/36 68/100/30
f 47/95/91 77/53/50 76/52/49
f 52/99/95 76/52/49 98/39/37
f 48/101/94 53/103/97 49/102/96
f 53/103/97 60/13/13 59/4/4
f 68/30/30 67/29/29 53/103/97
f 67/29/29 94/14/14 60/13/13
f 46/96/92 49/102/96 54/104/98
f 50/94/90 54/104/98 87/76/73
f 59/4/4 58/8/8 54/104/98
f 54/104/98 58/8/8 92/7/7
